PathFileType	4	(X/Y/Z)	C:\Users\°ÂÌØÂü\Desktop\20201223\Trimmed_bx_n_5_501.trc
DataRate	CameraRate	NumFrames	NumMarkers	Units	OrigDataRate	OrigDataStartFrame	OrigNumFrames
50.00	50.00	      5	43	mm	50.00	904	      1445
Frame#	Time	Top.Head			R.Acromium			L.Acromium			Sternum			R.ASIS			L.ASIS			V.Sacral			R.Thigh.Upper			R.Thigh.Front			R.Thigh.Rear			R.Knee.Lat			R.Knee.Med			R.Shank.Upper			R.Shank.Front			R.Shank.Rear			R.Ankle.Lat			R.Midfoot.Lat			R.Toe.Lat			R.Toe.Tip			R.Toe.Med			R.Ankle.Med			R.Midfoot.Sup			R.Heel			L.Thigh.Upper			L.Thigh.Front			L.Thigh.Rear			L.Knee.Lat			L.Knee.Med			L.Shank.Upper			L.Shank.Front			L.Shank.Rear			L.Ankle.Lat			L.Midfoot.Lat			L.Toe.Lat			L.Toe.Tip			L.Toe.Med			L.Ankle.Med			L.Midfoot.Sup			L.Heel			origin1 front left			origin2 front right			origin 3 back right			origin 4 back leftt			
		X1	Y1	Z1	X2	Y2	Z2	X3	Y3	Z3	X4	Y4	Z4	X5	Y5	Z5	X6	Y6	Z6	X7	Y7	Z7	X8	Y8	Z8	X9	Y9	Z9	X10	Y10	Z10	X11	Y11	Z11	X12	Y12	Z12	X13	Y13	Z13	X14	Y14	Z14	X15	Y15	Z15	X16	Y16	Z16	X17	Y17	Z17	X18	Y18	Z18	X19	Y19	Z19	X20	Y20	Z20	X21	Y21	Z21	X22	Y22	Z22	X23	Y23	Z23	X24	Y24	Z24	X25	Y25	Z25	X26	Y26	Z26	X27	Y27	Z27	X28	Y28	Z28	X29	Y29	Z29	X30	Y30	Z30	X31	Y31	Z31	X32	Y32	Z32	X33	Y33	Z33	X34	Y34	Z34	X35	Y35	Z35	X36	Y36	Z36	X37	Y37	Z37	X38	Y38	Z38	X39	Y39	Z39	X40	Y40	Z40	X41	Y41	Z41	X42	Y42	Z42	X43	Y43	Z43	

904	18.060	-106.82565	318.52225	1398.03259	-301.74014	137.10873	1212.79797	-326.55469	463.00449	1204.77661	-480.02631	286.94257	1060.11780	-703.57458	148.05931	983.55994	-696.17603	372.68597	973.97113	-871.06165	262.01367	1090.20911	-783.16931	86.52752	826.71210	-692.83063	149.93590	812.01740	-761.49023	92.64075	716.29846	-768.24487	117.07883	596.73187	-743.36292	223.65263	553.61530	-784.33618	113.61858	527.38831	-705.69202	165.64848	527.90613	-779.94781	106.30905	474.18042	-704.87042	129.62094	211.67685	-623.31152	72.77038	165.07687	-576.53931	49.68840	159.52122	-504.23477	96.32167	159.56291	-545.19220	145.25787	163.25237	-659.17346	207.00211	226.22607	-607.71783	182.49763	174.32793	-735.29419	197.06528	170.26813	-791.02039	452.20602	841.20557	-698.06042	400.86353	808.34296	-786.98633	443.18317	723.65112	-769.50543	415.15817	590.35406	-744.23444	304.32385	561.26373	-774.17780	416.99850	544.51080	-709.15680	363.85516	533.46484	-811.25702	416.45108	469.78064	-689.91473	412.60471	212.18631	-588.55847	464.86597	161.83038	-550.99811	476.79330	156.74506	-490.44571	423.58148	165.65788	-528.98853	386.10089	176.54111	-649.21350	323.89792	215.05881	-595.33594	344.56326	174.74072	-731.79797	337.63763	163.86552	-443.99182	448.53424	146.18648	-450.51801	74.94810	142.94727	-806.27826	82.69177	140.65794	-800.03607	456.35800	144.61882	
905	18.080	-105.41830	318.56030	1396.42358	-300.37842	137.14801	1211.69617	-325.31305	462.68182	1203.08191	-479.92752	287.06470	1057.95874	-702.83899	147.83466	983.60352	-695.45636	372.45996	974.04895	-870.21082	261.71875	1090.42761	-782.49786	86.27667	826.81628	-692.18323	149.73663	812.06799	-760.89209	92.43134	716.37097	-767.75537	116.94257	596.81842	-742.96875	223.52122	553.71204	-783.91425	113.44154	527.51465	-705.28442	165.52960	527.99817	-779.57831	106.17420	474.28030	-704.79053	129.63486	211.68788	-623.27753	72.78423	165.08014	-576.51337	49.68430	159.53987	-504.19678	96.32607	159.56108	-545.18146	145.27898	163.22943	-659.16199	206.99318	226.19688	-607.74774	182.46066	174.28464	-735.29199	197.03455	170.28650	-790.43616	451.94608	841.34900	-697.47815	400.62039	808.42126	-786.44482	442.97079	723.79669	-769.04633	415.01178	590.48767	-743.94525	304.37146	561.51288	-773.77753	416.86838	544.66370	-708.79987	363.68173	533.43793	-810.95203	416.34097	469.93091	-689.90363	412.56201	212.19174	-588.56384	464.85809	161.83829	-551.00720	476.77753	156.74966	-490.45572	423.58517	165.66278	-528.98193	386.06711	176.53706	-649.26501	323.96201	214.96477	-595.33374	344.53946	174.71619	-731.79901	337.62814	163.85428	-443.98810	448.54697	146.19061	-450.52066	74.94643	142.94095	-806.28638	82.68845	140.68272	-800.04224	456.35239	144.61626	
906	18.100	-104.03009	318.57584	1394.87366	-299.05524	137.14218	1210.63159	-324.07648	462.35672	1201.46985	-479.83038	287.16364	1055.94727	-702.10284	147.58633	983.66125	-694.71259	372.24493	974.13855	-869.34387	261.43338	1090.64294	-781.84320	86.02206	826.92615	-691.54004	149.51915	812.11389	-760.31696	92.20870	716.44830	-767.27954	116.81987	596.89996	-742.57410	223.39374	553.80597	-783.50037	113.29725	527.61102	-704.88458	165.41069	528.07849	-779.22754	106.03964	474.38678	-704.72205	129.64961	211.69012	-623.25134	72.79471	165.08031	-576.50244	49.67694	159.54570	-504.16049	96.33026	159.56166	-545.17346	145.29456	163.21159	-659.15436	206.98593	226.17221	-607.77386	182.43318	174.25133	-735.29504	197.01047	170.30354	-789.82263	451.69308	841.49146	-696.87781	400.37524	808.48846	-785.88391	442.76312	723.94043	-768.57843	414.87491	590.61993	-743.67767	304.41586	561.70160	-773.37469	416.73926	544.80969	-708.43958	363.51865	533.41370	-810.65497	416.25977	470.07928	-689.89575	412.52594	212.19624	-588.57141	464.85422	161.84575	-551.01703	476.76419	156.75119	-490.46542	423.58710	165.66603	-528.97882	386.03787	176.53802	-649.32953	324.03702	214.86081	-595.33234	344.51666	174.69173	-731.80731	337.62411	163.83684	-443.98474	448.55725	146.19441	-450.52289	74.94598	142.93474	-806.29181	82.68723	140.70879	-800.04877	456.34827	144.61473	
907	18.120	-102.63715	318.55872	1393.33813	-297.76740	137.08440	1209.57373	-322.83463	462.02548	1199.91138	-479.73517	287.23993	1054.08264	-701.36920	147.32248	983.72693	-693.95062	372.03769	974.22723	-868.46295	261.16592	1090.85632	-781.20941	85.77255	827.03918	-690.90735	149.29042	812.15326	-759.76904	91.98102	716.53058	-766.82196	116.71297	596.97577	-742.18188	223.27133	553.89661	-783.09979	113.18967	527.67865	-704.49652	165.29422	528.14618	-778.90271	105.90810	474.49960	-704.66626	129.66423	211.68571	-623.23376	72.80208	165.07788	-576.50427	49.66748	159.53932	-504.12811	96.33370	159.56503	-545.16791	145.30385	163.19945	-659.15045	206.97986	226.15462	-607.79340	182.41560	174.22882	-735.30267	196.99370	170.31821	-789.18195	451.45496	841.63458	-696.26166	400.13312	808.54370	-785.30591	442.56863	724.08282	-768.10217	414.75354	590.75409	-743.42932	304.44986	561.83759	-772.96729	416.61722	544.94818	-708.07397	363.36804	533.39740	-810.36432	416.21396	470.22864	-689.89020	412.49823	212.20000	-588.57959	464.85300	161.85332	-551.02582	476.75473	156.74951	-490.47397	423.58670	165.66736	-528.97784	386.01382	176.54433	-649.40204	324.11841	214.75224	-595.33209	344.49582	174.66788	-731.82257	337.62616	163.81413	-443.98193	448.56442	146.19734	-450.52454	74.94636	142.92880	-806.29596	82.68765	140.73419	-800.05487	456.34586	144.61433	
908	18.140	-101.21716	318.49588	1391.77954	-296.51343	136.96722	1208.49670	-321.58008	461.68274	1198.38574	-479.64212	287.29413	1052.36475	-700.63959	147.05203	983.79401	-693.17462	371.83435	974.30481	-867.56940	260.92331	1091.06995	-780.59778	85.53664	827.15240	-690.28900	149.05750	812.18500	-759.24963	91.75713	716.61694	-766.38470	116.62238	597.04608	-741.79333	223.15468	553.98364	-782.71582	113.12067	527.72107	-704.12225	165.18277	528.20154	-778.60754	105.78222	474.61829	-704.62311	129.67790	211.67738	-623.22504	72.80661	165.07341	-576.51575	49.65717	159.52238	-504.10135	96.33579	159.57123	-545.16443	145.30670	163.19324	-659.14948	206.97446	226.14572	-607.80560	182.40678	174.21609	-735.31403	196.98433	170.32973	-788.51544	451.23840	841.78052	-695.63092	399.89822	808.58783	-784.71210	442.39478	724.22522	-767.61646	414.65305	590.89288	-743.19635	304.46570	561.93274	-772.55292	416.50836	545.07928	-707.70105	363.23120	533.39313	-810.07642	416.20706	470.38190	-689.88599	412.48044	212.20335	-588.58673	464.85327	161.86124	-551.03241	476.75040	156.74486	-490.48044	423.58365	165.66675	-528.97748	385.99536	176.55569	-649.47687	324.20059	214.64540	-595.33374	344.47800	174.64517	-731.84418	337.63464	163.78725	-443.97989	448.56818	146.19925	-450.52551	74.94720	142.92349	-806.29993	82.68884	140.75729	-800.05988	456.34506	144.61501	
